<svg xmlns="http://www.w3.org/2000/svg" xmlns:xlink="http://www.w3.org/1999/xlink" viewBox="0 0 557 77" xmlns:v="https://vecta.io/nano"><g fill="#fff"><path d="M18.8 18.6c2.4-2.6 5.3-4.6 8.5-6.1s6.6-2.2 10.3-2.2c4 0 7.2.5 9.7 1.6 2.4 1.1 4.8 2.6 7.1 4.5 1.1.9 2.3 1.2 3.4 1.2 1.2-.1 2.2-.5 3-1.3s1.3-1.7 1.3-2.9c0-.6 0-1-.1-1.4s-.3-.8-.6-1.2-.7-.8-1.2-1.2c-3.5-2.8-6.9-4.9-10.3-6.1s-7.5-1.9-12.3-1.9c-5.1 0-9.8 1-14.1 2.9s-8.1 4.6-11.3 7.9C9 15.8 6.4 19.7 4.6 24.2s-2.7 9.3-2.7 14.5.9 10.1 2.7 14.6 4.4 8.4 7.6 11.8 7 6 11.4 7.9 9 2.8 14 2.8c4.2 0 8.2-.7 12-2 3.8-1.4 7.4-3.4 10.7-6 .5-.5.9-1 1.1-1.6s.4-1.2.4-1.8c0-1.4-.4-2.4-1.1-3.2S59 60 58 59.9c-1.1-.1-2.2.3-3.3 1.1-2.6 1.9-5.3 3.4-8.1 4.5s-5.8 1.6-8.9 1.6c-3.6 0-7.1-.7-10.3-2.2a28.27 28.27 0 0 1-8.5-6.1c-2.4-2.6-4.3-5.6-5.7-9s-2-7.1-2-11.1c0-3.9.7-7.6 2-11 1.2-3.4 3.1-6.5 5.6-9.1z"/><use xlink:href="#B"/><path d="M149.3 2.5h-19.9-9.6-20c-1.3 0-2.4.4-3.2 1.2s-1.3 1.9-1.3 3.2.4 2.4 1.3 3.2c.8.8 1.9 1.3 3.2 1.3h20V70c0 1.4.5 2.5 1.4 3.4a4.76 4.76 0 0 0 3.4 1.4c1.4 0 2.5-.5 3.4-1.4a4.76 4.76 0 0 0 1.4-3.4V11.4h19.9c1.3 0 2.4-.4 3.2-1.3.8-.8 1.3-1.9 1.3-3.2s-.4-2.4-1.3-3.2-1.9-1.2-3.2-1.2zm73.9 1.2c-.7-.8-1.7-1.2-2.8-1.2-1 0-1.8.2-2.5.6s-1.3 1-1.8 1.7l-22 34.8-21.7-34.4c-.6-.9-1.1-1.5-1.8-2-.6-.5-1.5-.7-2.5-.7-1.2 0-2.2.4-3.1 1.1s-1.4 1.6-1.6 2.8c-.2 1.1.1 2.4.9 3.7L189 48.5v21.6c0 1.4.5 2.5 1.4 3.4s2 1.4 3.3 1.4c1.4 0 2.5-.5 3.4-1.4a4.76 4.76 0 0 0 1.4-3.4V48.5L223.6 10c.7-1.2 1-2.3.9-3.5-.1-1.1-.6-2-1.3-2.8z"/><use xlink:href="#B" x="191.6"/><path d="M345.2 2.5c-1.4 0-2.5.4-3.4 1.3s-1.4 2.1-1.4 3.5V58L300 4.3c-1-1.2-2.2-1.8-3.7-1.8-1.4 0-2.5.4-3.4 1.3s-1.3 2.1-1.3 3.5V70c0 1.4.4 2.5 1.3 3.4s2 1.4 3.4 1.4 2.6-.5 3.5-1.4 1.3-2.1 1.3-3.4V19.5l40.4 53.7c.4.6 1 1 1.7 1.2.7.3 1.4.4 2 .4 1.4 0 2.6-.5 3.4-1.4.9-.9 1.3-2.1 1.3-3.4V7.3c0-1.4-.4-2.6-1.3-3.5-.8-.8-2-1.3-3.4-1.3zm66.2 10.2c-3.2-3.2-7-5.7-11.3-7.5-4.4-1.8-9.2-2.6-14.5-2.6h-16.8c-1.4 0-2.5.4-3.4 1.3S364 6 364 7.4v62.7c0 1.4.5 2.5 1.4 3.4a4.76 4.76 0 0 0 3.4 1.4h16.8c5.3 0 10.1-.9 14.5-2.6a33.84 33.84 0 0 0 11.3-7.5c3.2-3.2 5.7-7.1 7.4-11.5s2.6-9.3 2.6-14.6-.9-10.2-2.6-14.5c-1.7-4.5-4.2-8.3-7.4-11.5zM408.7 53c-2.3 4.2-5.4 7.4-9.4 9.8s-8.6 3.6-13.8 3.6h-12V11.1h12c5.2 0 9.8 1.2 13.8 3.5s7.1 5.6 9.4 9.7 3.4 8.9 3.4 14.4c.1 5.3-1.1 10.1-3.4 14.3zM481 11.4c1.4 0 2.6-.4 3.4-1.2.9-.8 1.3-1.9 1.3-3.2 0-1.4-.4-2.5-1.3-3.3s-2-1.2-3.4-1.2h-41.9c-1.4 0-2.5.4-3.4 1.3s-1.4 2.1-1.4 3.5V70c0 1.4.5 2.5 1.4 3.4a4.76 4.76 0 0 0 3.4 1.4H481c1.4 0 2.6-.4 3.4-1.3.9-.8 1.3-1.9 1.3-3.3 0-1.3-.4-2.3-1.3-3.1s-2-1.2-3.4-1.2h-37V42.8h26.6c1.4 0 2.6-.4 3.4-1.2.9-.8 1.3-1.9 1.3-3.2s-.4-2.4-1.3-3.2-2-1.3-3.4-1.3H444V11.4h37zm52.3 26.9l21.1-28.2c.7-1.1 1.1-2.3 1-3.4-.1-1.2-.5-2.2-1.2-3s-1.8-1.2-3.1-1.2c-1.4 0-2.6.5-3.4 1.4L527 31.5 507.1 3.9c-.7-.9-1.8-1.4-3.4-1.4-1.3 0-2.3.4-3.1 1.3s-1.2 1.9-1.3 3.1.2 2.3.9 3.2l20.4 28.2L499 67c-.7 1-1.1 2.1-1.1 3.3s.4 2.3 1.1 3.1c.7.9 1.8 1.3 3.2 1.3 1.3 0 2.4-.5 3.3-1.4L526.8 45l20.1 27.9c.5.6 1 1.1 1.6 1.3.6.3 1.3.4 2.1.4 1.4 0 2.4-.4 3.2-1.3s1.2-1.9 1.2-3.1c.1-1.2-.3-2.3-1-3.3l-20.7-28.6z"/></g><defs ><path id="B" d="M80.6 2.5c-1.4 0-2.5.4-3.4 1.3s-1.4 2.1-1.4 3.5V70c0 1.4.5 2.5 1.4 3.4a4.76 4.76 0 0 0 3.4 1.4c1.4 0 2.6-.5 3.5-1.4s1.3-2.1 1.3-3.4V7.3c0-1.4-.4-2.6-1.3-3.5-.9-.8-2.1-1.3-3.5-1.3z"/></defs></svg>