<svg xmlns="http://www.w3.org/2000/svg" viewBox="0 0 36 39" xmlns:v="https://vecta.io/nano"><path d="M18 0c-.3 0-.6.1-.9.3L2.9 11.5C1.1 12.9 0 15.1 0 17.4v19.1C0 37.9 1.1 39 2.5 39h10c1.4 0 2.5-1.1 2.5-2.5v-10a.47.47 0 0 1 .5-.5h5a.47.47 0 0 1 .5.5v10c0 1.4 1.1 2.5 2.5 2.5h10c1.4 0 2.5-1.1 2.5-2.5V17.4c0-2.3-1.1-4.5-2.9-5.9L18.9.3c-.2-.2-.6-.3-.9-.3zm0 3.4l13.3 10.5c1.1.9 1.7 2.2 1.7 3.5V36h-9v-9.5c0-1.9-1.6-3.5-3.5-3.5h-5c-1.9 0-3.5 1.6-3.5 3.5V36H3V17.4c0-1.4.6-2.7 1.7-3.5L18 3.4z" fill="#fff"/></svg>