<svg xmlns="http://www.w3.org/2000/svg" viewBox="0 0 334.5 73.2" fill="#fff" xmlns:v="https://vecta.io/nano"><path d="M21.8 73C12.9 73 7 71.5 2.6 69.6L0 54.4h1.9L3.8 58c4.5 8.6 10 12.4 18.8 12.4 10.1 0 15.8-5 15.8-13.2 0-7.3-4.2-11-16.2-15.2C8.6 37.3 1.8 32.1 1.8 20.4 1.8 8.5 12.5 0 25.8 0c8.3 0 13.1 1.1 17.7 3L46 18.8h-2l-1.8-3.7C38.1 6.5 32.9 2.6 25 2.6c-8.3 0-13.2 5-13.2 12.1 0 7.4 4 10.7 15.4 14.6 15 5 21.3 10.7 21.3 22.3C48.6 64.3 36.3 73 21.8 73zm62.8-6.2c-4.2 3.6-8.5 6-13.9 6-8 0-12.2-3.6-12.2-12.2V27.4h-7.4v-1.9l7.9-3 7.8-15.6H70v16h13.4v4.5H70v33c0 4.9 2.4 7.3 6.3 7.3 2.7 0 4.5-.7 7-2.5l1.3 1.6zm28.1 6.4c-14.5 0-25.2-9.2-25.2-26.3 0-14.5 10.4-25.6 25.3-25.6 14.4 0 25.2 9.2 25.2 26.3-.1 14.5-10.6 25.6-25.3 25.6zm-1.4-49.3c-7.1 0-11.1 5.4-11.1 20.1 0 16.1 5.2 26.6 13.8 26.6 7.2 0 11.1-5.4 11.1-20.1 0-16.1-5.1-26.6-13.8-26.6zm88.2 48.2c-2.3 0-8.2-.1-12.7-.1l-12.8.1v-1.6l1.7-.3c4.5-.8 5.3-2.2 5.3-11.3V39.3c0-7.6-3.3-11.3-9.2-11.3-4.1 0-7.5 1.6-10.5 3.8v27.1c0 9.2.7 10.5 5.3 11.3l1.7.3v1.6c-2.5 0-8.3-.1-12.8-.1l-12.8.1v-1.6l2-.3c4.2-.6 5-2.2 5-12.2V36.4c0-5.4-.9-6.9-4.6-8.6l-2.5-1.2v-1.1l17.4-3.8 1.4.9v7c5.5-4.7 10.6-7.8 17.1-7.8 9.3 0 14.2 5 14.2 15.5v21c0 10.2.8 11.4 5.1 12.2l1.8.3-.1 1.3h0zM214 42.6v.7c.3 14.2 8 23 18.4 23 5.7 0 9.7-2.1 13.9-6.3l1.4 1c-5.4 7.5-12.4 12.2-21.4 12.2-13.2 0-23.1-9-23.1-24.5 0-16.7 12.6-27.3 24.7-27.3 13.4 0 19.9 7.5 20.2 21.3l-34.1-.1h0zm21.9-2.8c-.3-10.5-4.1-15.8-10.1-15.8-6.8 0-11.1 5.8-11.8 15.8h21.9zm85.3 32.3c-1.8 0-10.8-.2-14.3-.2l-16.8.2v-1.4l3.2-.5c3.1-.5 4.4-1.3 4.4-3.2 0-1.6-1-3.6-3.2-7l-11.2-17.1-11.2 15.4c-2.6 3.6-3.8 6.3-3.8 8.3s1.2 3.2 4.3 3.7l3.3.5v1.4c-1.8 0-9.8-.2-13.4-.2s-9.3.2-11.2.2v-1.5l1.7-.3c4.5-.8 8.7-4.6 12.1-8.9l16.2-21.2-15.9-23.6c-3.7-5.5-6.3-8-10.3-8.7l-2.1-.4V6.2l14.3.2 16.6-.2v1.4l-3.2.5c-2.7.4-4.2 1.3-4.2 3.2 0 1.6 1 3.6 3.2 7l9.6 14.8 9.4-13.2c2.5-3.6 3.8-6.3 3.8-8.2s-1.3-3.2-4.3-3.7l-3.3-.5V6.1c1.8 0 9.8.2 13.4.2s9.3-.2 11.2-.2v1.4l-1.7.3c-4.5.8-8.6 4.2-12.1 8.9l-14.5 19 17.6 25.8c3.7 5.5 6.3 8 10.3 8.7l2.1.4v1.5h0zm8-55.1c-.8 0-1.5-.1-2.1-.4-.7-.3-1.2-.7-1.7-1.2s-.9-1.1-1.1-1.7c-.3-.7-.4-1.4-.4-2.1 0-.8.1-1.5.4-2.1.3-.7.7-1.2 1.1-1.7s1.1-.9 1.7-1.1c.7-.3 1.4-.4 2.1-.4.8 0 1.5.1 2.1.4.7.3 1.2.7 1.7 1.1.5.5.9 1.1 1.1 1.7.3.7.4 1.4.4 2.1 0 .8-.1 1.5-.4 2.1-.3.7-.7 1.2-1.1 1.7a6.57 6.57 0 0 1-1.7 1.2c-.6.2-1.3.4-2.1.4zm0-.8c.7 0 1.3-.1 1.8-.4.6-.2 1.1-.6 1.5-1s.7-.9 1-1.5c.2-.6.3-1.2.3-1.8 0-.7-.1-1.3-.3-1.8-.2-.6-.6-1.1-1-1.5s-.9-.7-1.5-1c-.6-.2-1.2-.4-1.8-.4-.7 0-1.3.1-1.8.4-.6.2-1.1.6-1.5 1s-.7.9-1 1.5c-.2.6-.3 1.2-.3 1.8 0 .7.1 1.3.3 1.8.2.6.6 1.1 1 1.5s.9.8 1.5 1c.6.3 1.2.4 1.8.4zm-2.3-1.4V8.4h2.8c.7 0 1.3.2 1.7.5.4.4.6.8.6 1.4s-.2 1-.6 1.4-.9.5-1.6.5l.3-.1c.3 0 .5.1.7.2s.4.3.6.6l1.1 1.9H331l-1.1-2.1c-.1-.2-.2-.3-.3-.3-.1-.1-.3-.1-.5-.1h-.7v2.5h-1.5zm1.3-3.6h1.3c.4 0 .7-.1.8-.2.2-.1.3-.4.3-.7s-.1-.6-.3-.7-.5-.2-.8-.2h-1.3v1.8z"/></svg>